<?xml version="1.0" standalone="no"?><!DOCTYPE svg PUBLIC "-//W3C//DTD SVG 1.1//EN" "http://www.w3.org/Graphics/SVG/1.1/DTD/svg11.dtd"><svg t="1727182537209" class="icon" viewBox="0 0 1024 1024" version="1.1" xmlns="http://www.w3.org/2000/svg" p-id="5314" xmlns:xlink="http://www.w3.org/1999/xlink" width="200" height="200"><path d="M269.696 210.56l147.584 15.424c16.256 0 29.12 9.216 35.904 24l71.296 135.872 97.728 71.744c16 11.776 22.592 33.28 14.272 51.328a41.728 41.728 0 0 1-62.72 16.512l-107.328-78.848a41.28 41.28 0 0 1-13.248-16.32s-4.864-13.248-5.12-11.136c-0.256 1.92 0 222.592 0 247.04 0 1.344 0.64 2.688 1.6 3.648l45.44 43.84c5.568 5.376 9.536 12.16 11.456 19.648l60.8 236.8c5.248 20.736-4.736 43.264-24.704 51.072a41.6 41.6 0 0 1-55.552-28.416v-0.064l-57.92-225.792a5.44 5.44 0 0 0-1.472-2.56l-95.04-91.648a5.376 5.376 0 0 0-3.392-1.472l-29.248-1.664a5.312 5.312 0 0 0-5.312 3.648l-39.744 121.984a41.984 41.984 0 0 1-7.168 13.248l-161.6 200.064a41.6 41.6 0 0 1-60.16 4.8c-16.896-15.04-17.28-41.408-3.2-58.88l154.688-191.616a7.04 7.04 0 0 0 0.96-1.664l47.232-145.088a5.312 5.312 0 0 0 0.256-1.6V361.984a2.112 2.112 0 0 0-3.648-1.472l-42.24 43.392a2.048 2.048 0 0 0-0.64 1.472v122.816a41.6 41.6 0 0 1-43.84 41.6c-22.592-1.216-39.424-21.376-39.424-43.968v-138.24a41.6 41.6 0 0 1 11.84-29.056l131.84-135.36a41.728 41.728 0 0 1 29.824-12.608zM352.832 0a92.544 92.544 0 1 1 0 185.088 92.544 92.544 0 0 1 0-185.088z" fill="#f4ea2a" p-id="5315"></path></svg>