<?xml version="1.0" standalone="no"?><!DOCTYPE svg PUBLIC "-//W3C//DTD SVG 1.1//EN" "http://www.w3.org/Graphics/SVG/1.1/DTD/svg11.dtd"><svg t="1728394807585" class="icon" viewBox="0 0 1024 1024" version="1.1" xmlns="http://www.w3.org/2000/svg" p-id="4563" xmlns:xlink="http://www.w3.org/1999/xlink" width="200" height="200"><path d="M672.6521995 680.6783368H389.5366795l-32.23400297 135.14979555c0 20.19479703 82.20318025 36.50597925 173.72703606 36.50597926 91.52385581 0 173.72703605-16.31118222 173.72703605-36.50597926l-32.10454914-135.14979555z" fill="#B2EDA6" p-id="4564"></path><path d="M531.15916642 865.1500405c-7.63777581 0-186.54296494-0.51781531-186.54296494-49.45136198 0-1.03563061 0.12945383-1.94180741 0.38836149-2.97743802L377.1091121 677.70089876c1.4239921-5.82542222 6.60214518-9.83849086 12.55702123-9.83849086h283.11552c5.95487605 0 11.13302914 4.14252247 12.55702124 9.83849086l32.23400296 135.14979555c0.25890765 1.03563061 0.38836148 1.94180741 0.38836149 2.97743804-0.25890765 48.80409283-179.1640968 49.32190815-186.8018726 49.32190815zM370.89532839 814.79250173c10.48576 9.45012939 68.86943605 24.72568098 160.26383803 24.72568099s149.64862419-15.27555161 160.26383803-24.72568099l-28.86820347-121.29823604h-262.79126913L370.89532839 814.79250173z" fill="#3C663E" p-id="4565"></path><path d="M531.15916642 833.95166815c-7.63777581 0-183.43607309-0.25890765-183.43607309-49.0630005 0-7.1199605 2.58907653-13.20429037 9.70903704-13.20429037 6.47269136 0 11.9097521 4.91924543 12.81592888 11.13302914 8.28504494 9.45012939 67.31599013 25.37295013 160.91110717 25.37295011 93.72457086 0 152.62606222-16.05227457 160.91110716-25.37295011 0.77672297-6.34323753 6.2137837-11.13302914 12.81592889-11.13302914 7.1199605 0 6.99050667 7.24941431 6.99050667 14.23992099 0 48.93354667-173.07976691 48.02736987-180.71754272 48.02736988z" fill="#3C663E" p-id="4566"></path><path d="M743.85180445 373.48440494c-7.63777581-20.58315852 0-37.41215605 0-37.41215605s-78.31956543-68.22216691-90.0998637-80.00246519c-11.78029827-11.78029827-11.52139061-21.48933531-20.06534322-27.83257284-8.67340642-6.2137837-50.74590025-19.15916642-52.68770766-21.10097383s12.16865975-16.44063605 19.67698174-23.94895801c-5.69596839-4.2719763-40.38959408-4.2719763-47.50955458-4.2719763-7.1199605 0-8.15559111-42.8492168-8.15559111-64.59745975-17.99408197 0-39.48341728 59.5487605-39.48341728 59.5487605-56.7007763 0-150.1664395 77.54284247-150.1664395 212.69263801 0 53.8527921 34.43471803 147.96572445 47.38010073 193.92183309 3.10689185 10.87412148 6.47269136 26.53803457 7.1199605 35.72925629 81.42645728 0.25890765 160.91110717 0 244.5382795 0 0.77672297-10.74466765-1.16508445-25.2434963-1.16508444-41.16631703 0-66.53926717-126.86475061-180.07027358-126.86475061-188.74368 4.2719763 4.2719763 21.48933531 8.15559111 28.73874963 8.15559111 29.25656494 0 41.68413235-13.46319803 65.11527505-13.46319803 23.43114272 0 30.68055703 37.41215605 66.53926717 37.41215606s39.74232494-16.6995437 42.59030914-19.15916644c17.47626667-11.3919368 16.95845136-20.45370469 14.49882864-25.76131159z" fill="#B2EDA6" p-id="4567"></path><path d="M491.02848 629.28516741c-26.92639605 0-53.8527921 0-81.03809581-0.12945383-6.73159902 0-12.29811358-5.17815309-12.81592888-11.9097521-0.51781531-7.37886815-3.3657995-21.61878914-6.60214518-33.14017975-2.84798419-10.35630617-6.86105283-23.04278124-11.52139063-37.6710637-15.40500543-49.0630005-36.37652543-116.2495368-36.37652542-159.87547655 0-131.52508839 88.02860247-217.48242963 153.92060049-224.99075161 9.96794469-25.50240395 27.44421136-60.06657581 48.54518518-60.06657579 7.1199605 0 12.81592889 5.82542222 12.81592889 12.81592889 0 28.47984197 1.55344592 44.40266272 2.84798419 51.78153086 39.09505581 0.38836148 44.14375506 4.2719763 47.63900841 6.86105284 2.97743803 2.20071506 4.78979161 5.69596839 5.17815307 9.32067555 0.25890765 3.75416098-1.03563061 7.37886815-3.75416098 9.96794469-3.49525333 3.49525333-6.34323753 6.47269136-8.54395258 8.80286026 19.41807408 6.86105283 33.65799506 12.03920592 40.00123258 16.69954369 6.73159902 4.78979161 9.83849086 10.87412148 12.68647506 16.05227457 2.33016889 4.40143013 4.40143013 8.41449876 9.06176791 12.94538272 9.0617679 9.0617679 62.39674469 55.92405333 89.45259456 79.35519604 4.2719763 3.75416098 5.56651457 9.83849086 3.23634567 15.01664396-0.12945383 0.38836148-5.17815309 12.29811358 0.25890766 27.1853037 3.62470717 8.28504494 5.56651457 23.94895803-17.21735901 40.13068642-4.14252247 6.47269136-15.14609778 22.65441975-51.65207703 22.65441976-25.37295013 0-39.61287111-14.7577363-50.09863112-25.50240395-7.1199605-7.37886815-11.65084445-11.78029827-16.44063605-11.78029827-8.93231408 0-16.18172839 2.45962272-24.59622715 5.43706072-9.45012939 3.23634569-20.19479703 6.99050667-34.56417186 7.76722964 51.5226232 55.92405333 105.11650765 119.09752098 105.11650766 167.90161383 0 6.73159902 0.38836148 13.20429037 0.64726913 19.41807408 0.38836148 8.15559111 0.9061768 15.79336691 0.38836149 22.65441975-0.51781531 6.73159902-6.08432987 11.9097521-12.81592889 11.90975209H571.5487605c-27.1853037 0.38836148-53.8527921 0.38836148-80.5202805 0.38836149z m-69.77561283-25.7613116c50.09863111 0.12945383 99.67944691 0.12945383 150.03698566 0h70.29342815c-0.12945383-2.33016889-0.25890765-4.78979161-0.38836148-7.37886816-0.38836148-6.34323753-0.77672297-13.46319803-0.77672297-20.97152 0-43.88484741-68.61052839-118.19134419-101.49180048-153.92060048-21.48933531-23.30168889-25.37295013-27.44421136-25.37295013-34.82307952 0-5.17815309 3.10689185-9.83849086 7.89668347-11.9097521 4.66033778-1.94180741 9.83849086-1.03563061 13.59265185 2.3301689 3.23634569 1.94180741 15.01664395 4.78979161 20.06534321 4.7897916 13.20429037 0 22.3955121-3.23634569 32.10454913-6.60214519 9.70903703-3.3657995 19.80643555-6.86105283 33.01072592-6.86105283 15.92282075 0 26.02021925 10.48576 34.95253333 19.67698172 9.19122173 9.45012939 17.21735902 17.73517431 31.58673384 17.73517433 23.04278124 0 27.83257283-7.50832197 30.16274172-11.13302914 1.03563061-1.55344592 2.20071506-3.49525333 4.14252247-5.04869925l1.16508445-0.77672297c9.19122173-6.08432987 9.83849086-9.70903703 9.83849086-9.70903703-0.12945383-0.25890765-0.25890765-0.64726914-0.38836148-0.9061768-5.69596839-15.40500543-4.66033778-28.99765728-2.71853038-37.67106371-19.02971259-16.57008987-74.3064968-64.98582124-84.40389529-75.08321975-7.24941431-7.24941431-10.87412148-14.11046717-13.59265185-19.15916641-2.07126124-4.01306864-3.23634569-5.95487605-4.91924544-7.24941433-4.01306864-2.84798419-23.94895803-9.83849086-33.65799506-13.33374419-15.14609778-5.30760691-17.86462815-6.34323753-20.58315852-9.06176791-8.15559111-8.15559111-2.33016889-17.73517431 2.8479842-24.07841184-5.56651457-0.25890765-12.55702124-0.38836148-21.48933532-0.3883615-13.07483653 0-18.77080494-11.26248297-20.45370468-46.99173925-5.17815309 9.45012939-10.74466765 21.48933531-15.14609778 33.52854124-1.81235358 5.04869925-6.73159902 8.54395259-12.03920593 8.54395259-47.89791605 0-137.2210568 68.61052839-137.22105679 199.74725531 0 39.61287111 20.32425086 104.59869235 35.21144098 152.10824691 4.66033778 14.88719013 8.67340642 27.70311902 11.65084445 38.31833284 2.20071506 7.24941431 4.53088395 17.21735902 6.08432989 26.27912692z" fill="#3C663E" p-id="4568"></path><path d="M437.82295703 626.95499852c-5.56651457 0-10.74466765-3.75416098-12.4275674-9.45012938-3.3657995-12.03920592-8.80286025-28.22093431-15.01664394-46.99173927-17.86462815-53.72333827-40.13068642-120.52151309-40.13068644-162.0761916 0-141.75194075 73.14141235-240.52521086 138.77450272-240.52521086 7.1199605 0 12.81592889 5.82542222 12.81592889 12.81592889 0 7.1199605-5.82542222 12.81592889-12.81592889 12.81592888-46.08556247 0-113.01319111 83.62717235-113.01319111 214.76389927 0 37.41215605 22.3955121 104.72814617 38.83614816 153.92060049 6.34323753 19.02971259 11.78029827 35.47034864 15.40500543 48.1568237 1.94180741 6.86105283-2.07126124 13.98101333-8.93231408 15.92282075-1.16508445 0.51781531-2.33016889 0.64726914-3.49525334 0.64726913z" fill="#FFFFFF" p-id="4569"></path><path d="M743.46344297 648.44433383c0 17.73517431-10.48576 32.23400297-23.43114272 32.23400297h-365.0597926c-12.94538272 0-23.43114272-14.36937482-23.43114271-32.23400297 0-17.73517431 10.48576-32.23400297 23.43114271-32.23400297h365.0597926c12.94538272 0.12945383 23.43114272 14.49882864 23.43114272 32.23400297z" fill="#B2EDA6" p-id="4570"></path><path d="M720.03230025 693.49426569h-365.0597926c-20.32425086 0-36.24707161-19.80643555-36.2470716-45.04993186s15.92282075-45.04993185 36.2470716-45.04993186h365.0597926c20.32425086 0 36.24707161 19.80643555 36.2470716 45.04993186s-15.92282075 45.04993185-36.2470716 45.04993186z m-364.93033877-64.33855211c-4.2719763 0-10.48576 7.50832197-10.48576 19.28862025s6.2137837 19.28862025 10.48576 19.28862025h365.0597926c4.2719763 0 10.48576-7.50832197 10.48576-19.28862025s-6.2137837-19.28862025-10.48576-19.28862025h-365.0597926zM544.10454914 287.00924839c1.4239921 14.11046717 14.11046717 24.46677333 28.22093433 22.91332742 14.11046717-1.4239921 24.46677333-14.11046717 22.91332739-28.22093433l-51.13426172 5.30760691z" fill="#3C663E" p-id="4571"></path><path d="M529.21735902 873.69399309c-45.3088395 0-193.0156563-4.01306864-193.0156563-55.79459951 0-1.68289975 0.25890765-3.23634569 0.64726913-4.91924543l27.83257284-106.54049976h-7.24941432c-30.81001086 0-51.5226232-29.90383408-51.5226232-57.86586074s20.71261235-57.86586075 51.5226232-57.86586074h27.57366518l-0.64726913-2.07126122c-2.84798419-10.22685235-6.86105283-22.78387358-11.39193679-37.41215606-15.53445925-49.45136197-36.76488691-117.15571358-36.76488691-161.68783013 0-134.63198025 86.60461037-220.58932148 155.73295408-230.94562765 16.18172839-40.26014025 34.04635653-60.58439111 53.20552295-60.5843911 10.61521383 0 19.28862025 8.67340642 19.28862025 19.28862023 0 22.65441975 0.9061768 37.15324839 1.94180741 45.43829333 33.26963358 0.64726914 40.64850173 4.01306864 45.95610864 8.0261373 4.53088395 3.3657995 7.24941431 8.54395259 7.6377758 14.11046715 0.38836148 5.56651457-1.68289975 11.00357531-5.56651457 15.01664396l-1.55344592 1.55344592c15.53445925 5.56651457 26.27912691 9.83849086 32.23400295 14.11046717 7.89668347 5.69596839 11.65084445 12.68647506 14.62828249 18.38244344 2.20071506 4.01306864 4.01306864 7.63777581 7.89668345 11.3919368 9.19122173 9.19122173 67.44544395 60.19602963 89.06423308 79.0962884 6.47269136 5.56651457 8.41449876 14.7577363 4.91924543 22.52496592 0 0.12945383-4.01306864 9.96794469 0.38836149 22.13660445 3.62470717 8.41449876 7.50832197 27.96202667-18.51189728 46.99173926-7.37886815 10.87412148-21.35988148 24.46677333-56.31241482 24.46677333-28.0914805 0-44.14375506-16.57008987-54.7589689-27.44421136-4.2719763-4.40143013-9.5795832-9.83849086-11.90975208-9.83849087-7.89668347 0-14.36937482 2.20071506-22.52496593 5.04869927-6.60214518 2.33016889-14.23992098 4.91924543-23.56059655 6.60214518 49.58081581 54.50006124 98.38490864 114.56663703 98.38490864 162.9823684 0 5.17815309 0.12945383 9.32067555 0.12945384 12.81592888H711.35889383c31.32782617 0 51.5226232 22.78387358 51.5226232 57.86586074 0 37.28270222-21.61878914 64.3385521-51.5226232 64.3385521h-13.98101333l24.46677333 100.45616988c0.38836148 1.55344592 0.51781531 2.97743803 0.51781531 4.53088395-0.12945383 51.78153086-147.83627061 55.7945995-193.14511012 55.79459951z m-152.75551605-59.67821433c16.18172839 8.67340642 72.4941432 21.10097383 152.75551605 21.10097383 80.5202805 0 136.96214914-12.55702124 152.88496987-21.10097383l-28.22093432-115.86117529c-1.4239921-5.69596839-0.12945383-11.78029827 3.62470716-16.44063606 3.62470717-4.66033778 9.19122173-7.37886815 15.14609777-7.37886816H711.35889383c7.24941431 0 12.81592889-11.26248297 12.81592889-25.7613116 0-19.28862025-8.02613728-19.28862025-12.81592889-19.28862024h-57.86586074c-5.30760691 0-10.48576-2.20071506-14.11046717-6.08432988-3.62470717-3.88361482-5.56651457-9.19122173-5.17815309-14.49882864 0.38836148-5.82542222 0.25890765-9.83849086 0.12945384-16.05227458-0.12945383-4.01306864-0.12945383-8.67340642-0.12945384-14.75773628 0-41.42522469-69.90506667-117.15571358-99.80890073-149.51917038-22.3955121-24.3373195-27.05584987-29.38601876-27.05584988-39.0950558 0-7.76722963 4.66033778-14.88719013 11.90975209-17.86462815 6.60214518-2.71853037 14.23992098-1.55344592 19.67698174 2.97743803 3.49525333 1.68289975 13.07483653 3.75416098 16.44063605 3.75416099 12.16865975 0 20.45370469-2.84798419 30.0332879-6.2137837 9.70903703-3.3657995 20.84206617-7.24941431 35.21144098-7.24941433 18.64135111 0 30.29219555 11.9097521 39.61287112 21.61878914 9.70903703 10.09739852 15.79336691 15.79336691 26.92639605 15.79336692 19.5475279 0 23.04278124-5.43706075 24.72568099-8.15559112 1.16508445-1.81235358 2.71853037-4.2719763 5.43706073-6.60214518 0.51781531-0.38836148 1.03563061-0.9061768 1.68289976-1.29453828 3.3657995-2.20071506 5.30760691-4.01306864 6.2137837-5.04869926-4.78979161-13.8515595-4.40143013-26.40858075-2.97743802-35.47034864-21.61878914-18.90025876-72.10578173-63.17346765-81.94427259-73.01195852-8.02613728-8.02613728-11.9097521-15.27555161-14.7577363-20.71261234-1.16508445-2.20071506-2.45962272-4.66033778-3.10689185-5.04869926-4.01306864-2.58907653-22.91332741-9.19122173-31.97509532-12.4275674-16.31118222-5.69596839-19.15916642-6.73159902-23.04278122-10.61521384-7.50832197-7.50832197-6.86105283-15.66391309-3.88361483-22.52496593-3.10689185 0-6.47269136-0.12945383-10.22685234-0.12945381-14.36937482 0-21.48933531-9.19122173-24.72568099-29.77438026-1.68289975 4.01306864-3.23634569 8.02613728-4.7897916 12.03920592-2.71853037 7.63777581-9.96794469 12.68647506-18.1235358 12.68647507-44.40266272 0-130.87781925 68.22216691-130.87781927 193.40401779 0 38.5772405 20.19479703 103.04524642 34.95253333 150.16643949 4.66033778 14.88719013 8.67340642 27.70311902 11.78029829 38.57724051l1.16508443 4.01306862c2.45962272 8.80286025 4.66033778 16.44063605 5.43706075 26.27912693 0.38836148 5.43706075-1.4239921 10.74466765-5.04869925 14.62828246-3.62470717 4.01306864-8.80286025 6.2137837-14.239921 6.21378371h-51.52262322c-6.86105283 0-12.81592889 10.74466765-12.81592888 19.28862024s6.08432987 19.28862025 12.81592888 19.28862025h32.23400297c5.95487605 0 11.65084445 2.71853037 15.27555161 7.50832197 3.62470717 4.78979161 4.91924543 10.87412148 3.3657995 16.69954371l-31.71618764 121.94550518z" fill="#3C663E" p-id="4572"></path></svg>